<?xml version="1.0" encoding="utf-8"?>
<!-- Generator: Adobe Illustrator 24.0.1, SVG Export Plug-In . SVG Version: 6.00 Build 0)  -->
<svg version="1.1" id="logo-main" xmlns="http://www.w3.org/2000/svg" xmlns:xlink="http://www.w3.org/1999/xlink" x="0px" y="0px"
	 viewBox="0 0 104.4 104.4" style="enable-background:new 0 0 104.4 104.4;" xml:space="preserve">
<style type="text/css">
	.st0{fill:#FFFFFF;}
	.st1{fill:#EA5842;}
	.st2{fill:none;stroke:#FFFFFF;stroke-width:2;stroke-linecap:round;stroke-miterlimit:10;}
	.st3{fill:#FFFFFF;stroke:#FFFFFF;stroke-width:0.75;stroke-linecap:round;stroke-linejoin:round;stroke-miterlimit:10;}
	.st4{fill:none;stroke:#EA5842;stroke-miterlimit:10;}
	.st5{display:none;}
	.st6{display:inline;}
	.st7{display:inline;fill:none;stroke:#FFFFFF;stroke-linecap:round;stroke-linejoin:round;stroke-miterlimit:10;}
	.st8{display:inline;fill:none;stroke:#000000;stroke-miterlimit:10;}
</style>
<g id="primary_1_">
	<circle class="st0" cx="52.1" cy="52.1" r="49.5"/>
	<circle id="main" class="st1" cx="52.2" cy="52.2" r="45"/>
	<path id="j_1_" class="st2" d="M66,36.9c0,0-5.6,36.5-9.3,45.2c0,0-1.8,5.2-6.8,6.1s-8.4-4.7-7.3-12.3"/>
	<path id="j_hearder_1_" class="st2" d="M36.2,44.4c0.5,0.1,14.3-3,29.8-7.5s22.2-6.4,22.2-6.4"/>
	<g id="su_1_">
		<path id="s_1_" class="st3" d="M16.2,59.5c0.1,0,0.2,0.1,0.3,0.2c0.1,0.1,0.1,0.3,0,0.5c-0.1,0.1-0.2,0.2-0.3,0.3
			s-0.3,0.1-0.7-0.1c-0.3-0.1-0.6-0.2-0.9-0.2c-0.7,0-1.3,0.2-1.9,0.6c-0.6,0.4-1.1,1-1.5,1.9s-0.6,1.9-0.6,3.2c0,2,0.6,3.5,1.9,4.7
			s3,1.8,5.3,1.8c1.2,0,2.2-0.2,3.2-0.7s1.9-1,2.7-1.8s1.3-1.7,1.8-2.7c0.4-1,0.7-2.1,0.7-3.2c0-1.1-0.1-2.2-0.4-3.1
			s-0.7-1.9-1.2-2.8c-0.5-0.9-1.1-1.8-1.9-2.8s-1.6-1.9-2.6-3c-0.7-0.8-1.4-1.6-2.1-2.4c-0.7-0.8-1.4-1.7-1.9-2.6
			c-0.6-0.9-1.1-1.9-1.4-3s-0.5-2.2-0.5-3.5c0-2.1,0.4-3.9,1.2-5.5c0.8-1.6,1.8-2.9,3-3.9s2.5-1.8,3.9-2.4c1.4-0.5,2.7-0.8,3.8-0.8
			c1.8,0,3.4,0.3,4.9,1c1.5,0.7,2.7,1.7,3.5,3c0.5,0.8,0.8,1.7,0.8,2.7c0,0.2-0.1,0.4-0.4,0.5c-0.2,0.1-0.3,0.1-0.5,0.1
			s-0.2-0.3-0.2-0.6c0-0.8-0.2-1.6-0.7-2.2c-0.5-0.7-1.1-1.3-1.8-1.8c-0.8-0.5-1.6-0.9-2.6-1.2s-2-0.4-3-0.4s-2.2,0.2-3.5,0.7
			c-1.3,0.5-2.4,1.2-3.5,2.2c-1.1,1-2,2.2-2.8,3.6c-0.8,1.4-1.1,3.1-1.1,5c0,1.2,0.2,2.2,0.5,3.2c0.3,1,0.8,1.9,1.4,2.8
			c0.6,0.9,1.2,1.7,1.9,2.5s1.3,1.6,2,2.3c1.6,1.8,3,3.5,4,5c1,1.5,1.7,3.1,2,4.8c0.3,1.5,0.3,2.9,0,4.4s-0.8,2.7-1.6,3.9
			c-0.8,1.1-1.8,2.1-3.1,2.8c-1.3,0.7-2.7,1.1-4.4,1.1c-2.7,0-4.7-0.7-6.1-2.1c-1.4-1.4-2.2-3.2-2.2-5.5c0-1.2,0.2-2.1,0.5-3
			s0.7-1.5,1.2-2.1s1-0.9,1.6-1.2c0.6-0.3,1.2-0.4,1.8-0.4C15.3,59.3,15.8,59.4,16.2,59.5z"/>
		<path id="u_1_" class="st3" d="M49.2,48.3c0.3,0,0.7-0.1,1,0c0.3,0,0.4,0.2,0.2,0.6c-0.1,0.3-0.4,0.8-0.7,1.4
			c-0.5,1.1-1.1,2.4-1.8,3.9c-0.7,1.6-1.4,3.2-2,4.9c-0.6,1.7-1.2,3.4-1.6,5.1c-0.5,1.7-0.7,3.2-0.7,4.4c0,1.2,0.2,2.1,0.6,2.6
			c0.4,0.6,1,0.8,1.7,0.8c1.1,0,2.1-0.3,3-0.9c0.9-0.6,1.8-1.4,2.7-2.4c0.8-0.9,1.6-2,2.2-3c0.7-1.1,1.2-2,1.6-2.9
			c0.3-0.2,0.6-0.1,0.7,0.4c0.1,0.5,0.1,1-0.2,1.4c-0.5,0.8-1,1.8-1.7,2.8c-0.7,1-1.4,2-2.3,2.8C51,71.2,50,71.9,49,72.5
			s-2.1,0.9-3.2,0.9c-0.2,0-0.4,0-0.5,0s-0.3-0.1-0.5-0.1c-0.8-0.2-1.4-0.7-1.9-1.4c-0.4-0.8-0.7-1.8-0.7-3.2c0-0.3,0.1-0.8,0.2-1.5
			c0.1-0.7,0.2-1.3,0.4-2c-0.3,0.9-0.8,1.9-1.5,2.8s-1.4,1.9-2.3,2.7c-0.9,0.8-1.8,1.4-2.7,2c-0.9,0.5-1.9,0.8-2.8,0.8
			c-1.1,0-2-0.4-2.6-1.2s-1-2-1-3.6c0-1.3,0.2-2.9,0.7-4.6c0.5-1.7,1-3.5,1.7-5.2c0.7-1.8,1.3-3.5,2.1-5.1c0.7-1.6,1.3-2.9,1.8-4
			c0.1-0.3,0.2-0.6,0.4-0.8s0.2-0.4,0.3-0.6c0.3,0,0.7-0.1,1,0c0.3,0,0.4,0.2,0.2,0.6c-0.2,0.3-0.4,0.8-0.7,1.4
			c-0.5,1.1-1.1,2.4-1.8,3.9c-0.7,1.6-1.4,3.2-2,4.9c-0.6,1.7-1.2,3.4-1.6,5.1c-0.5,1.7-0.7,3.2-0.7,4.4c0,1.2,0.2,2.1,0.6,2.6
			c0.4,0.6,1,0.8,1.7,0.8c1.3,0,2.6-0.5,3.7-1.6c1.2-1,2.3-2.3,3.3-3.7c1-1.4,1.9-3,2.6-4.6c0.7-1.6,1.3-3,1.7-4.1
			c0.2-0.8,0.6-1.6,1-2.6c0.4-1,0.8-1.9,1.3-2.9s0.8-1.8,1.2-2.6C48.7,49.3,49,48.7,49.2,48.3z"/>
	</g>
	<g id="in_1_">
		<path id="i_1_" class="st3" d="M71.1,49.2c0.2,0,0.4,0,0.6,0c0.2,0,0.3,0.2,0.1,0.6c-0.1,0.2-0.2,0.3-0.3,0.5
			c-0.1,0.2-0.2,0.4-0.3,0.6c-0.5,0.9-1.1,2.1-1.7,3.6c-0.7,1.4-1.3,3-1.9,4.6c-0.6,1.6-1.2,3.2-1.6,4.7c-0.5,1.6-0.7,3-0.7,4.2
			c0,2.1,0.7,3.2,2.1,3.2c0.3,0,0.8-0.1,1.4-0.2c0.6-0.2,1.2-0.5,2-1.1c0.8-0.5,1.6-1.3,2.5-2.4C74,66.4,75,65,76,63.2
			c0.1-0.3,0.2-0.4,0.3-0.6c0.1-0.1,0.2,0,0.3,0.3c0.1,0.1,0.1,0.3,0.2,0.6c0,0.3,0,0.6-0.2,0.9c-0.2,0.3-0.3,0.5-0.5,0.8
			s-0.3,0.5-0.5,0.8c-0.5,0.7-1,1.5-1.6,2.2c-0.6,0.8-1.2,1.4-2,2s-1.5,1.1-2.3,1.5c-0.8,0.4-1.6,0.6-2.5,0.5c-1,0-1.8-0.4-2.4-1.1
			c-0.6-0.7-0.8-1.8-0.8-3.3c0-1.2,0.3-2.6,0.7-4.3c0.5-1.7,1.1-3.3,1.7-5.1c0.7-1.7,1.4-3.3,2.1-4.9c0.7-1.5,1.3-2.8,1.8-3.8
			c0.1-0.2,0.2-0.4,0.3-0.5C70.8,49.3,70.9,49.3,71.1,49.2z M71.8,44.9c0.3-0.5,0.6-0.7,1.1-0.7c0.3,0,0.5,0.1,0.7,0.3
			s0.3,0.4,0.2,0.7c0,0.4-0.1,0.7-0.4,0.9c-0.2,0.2-0.5,0.3-0.8,0.3c-0.2,0-0.3,0-0.3-0.1c-0.4-0.1-0.6-0.4-0.6-0.9
			C71.7,45.2,71.8,45,71.8,44.9z"/>
		<path id="n_1_" class="st3" d="M96.2,63.1c0.1-0.1,0.2-0.1,0.3-0.1c0.1,0.1,0.2,0.2,0.3,0.3c0.1,0.2,0.1,0.4,0.1,0.6
			c0,0.2,0,0.4-0.2,0.6c-0.1,0.2-0.2,0.4-0.3,0.6S96,65.7,95.9,66c-0.4,0.7-0.9,1.4-1.5,2.1s-1.2,1.4-1.8,2.1
			c-0.7,0.7-1.3,1.2-2.1,1.6s-1.5,0.6-2.2,0.6c-1.1,0-1.9-0.4-2.3-1.3c-0.4-0.8-0.7-1.8-0.7-3c0-1.2,0.2-2.5,0.6-3.9
			c0.4-1.4,0.9-2.9,1.4-4.3c0.6-1.4,1.1-2.8,1.7-4c0.6-1.2,1.1-2.3,1.4-3c0.1-0.2,0.2-0.5,0.2-0.7c0-0.1-0.1-0.2-0.2-0.2
			c-0.5,0-1.3,0.3-2.5,1s-2.5,1.6-3.9,2.8c-1.4,1.2-2.8,2.6-4.2,4.3s-2.5,3.5-3.4,5.4c-0.4,1.1-0.8,2.2-1.1,3.1
			c-0.3,1-0.6,1.8-0.9,2.5c-0.2,0.6-0.4,1-0.6,1.2c-0.2,0.2-0.5,0.1-0.9-0.2c0.3-0.7,0.6-1.7,1-2.8c0.4-1.1,0.8-2.3,1.3-3.5
			c0.4-1.3,0.9-2.6,1.3-3.9c0.4-1.3,0.9-2.7,1.3-3.9c0.3-1.1,0.6-2.2,0.8-3.2c0.2-1,0.4-1.9,0.5-2.8c0-0.3,0.1-0.5,0.1-0.8
			c0-0.2,0-0.5,0-0.7c0-0.2,0-0.4,0.1-0.7s0.3-0.4,0.8-0.4c0.2,0,0.2,0.1,0.3,0.4c0,0.3,0,0.5,0,0.7c0,0.7-0.1,1.5-0.3,2.4
			s-0.4,1.8-0.6,2.8s-0.5,1.9-0.8,2.8s-0.6,1.8-0.8,2.6c1-1.5,2.2-2.9,3.4-4.2c1.2-1.2,2.4-2.3,3.6-3.2c1.2-0.9,2.2-1.6,3.2-2.1
			s1.7-0.7,2.3-0.7c0.9,0,1.3,0.5,1.3,1.4c0,0.2-0.1,0.5-0.2,0.8s-0.4,1-0.9,1.9c-0.4,0.9-0.9,1.9-1.4,3c-0.5,1.1-0.9,2.3-1.4,3.5
			c-0.4,1.2-0.8,2.4-1.1,3.6c-0.3,1.2-0.4,2.2-0.4,3.2c0,0.9,0.1,1.7,0.4,2.2c0.3,0.5,0.7,0.8,1.2,0.8s1.1,0,1.6-0.3
			c0.7-0.3,1.4-0.8,2-1.5c0.7-0.7,1.3-1.4,1.8-2.2c0.6-0.8,1.1-1.5,1.5-2.2C95.6,64.2,95.9,63.6,96.2,63.1z"/>
	</g>
	<circle id="outside" class="st4" cx="52.2" cy="52.2" r="50"/>
</g>
<g id="b_x26_w" class="st5">
	
		<ellipse id="main_1_" transform="matrix(0.1602 -0.9871 0.9871 0.1602 102.5115 223.646)" class="st6" cx="182.7" cy="51.6" rx="45" ry="45"/>
	<path id="j_2_" class="st7" d="M196.5,36.3c0,0-5.6,36.5-9.3,45.2c0,0-1.8,5.2-6.8,6.1c-5,0.9-8.4-4.7-7.3-12.3"/>
	<path id="j_hearder_2_" class="st7" d="M166.7,43.8c0.5,0.1,14.3-3,29.8-7.5s22.2-6.4,22.2-6.4"/>
	<g id="su_2_" class="st6">
		<path id="s_2_" class="st0" d="M146.7,58.9c0.1,0,0.2,0.1,0.3,0.2c0.1,0.1,0.1,0.3,0,0.5c-0.1,0.1-0.2,0.2-0.3,0.3
			c-0.1,0.1-0.3,0.1-0.7-0.1c-0.3-0.1-0.6-0.2-0.9-0.2c-0.7,0-1.3,0.2-1.9,0.6c-0.6,0.4-1.1,1-1.5,1.9c-0.4,0.8-0.6,1.9-0.6,3.2
			c0,2,0.6,3.5,1.9,4.7s3,1.8,5.4,1.8c1.1,0,2.2-0.2,3.2-0.7s1.9-1,2.6-1.8s1.4-1.7,1.8-2.7c0.4-1,0.7-2.1,0.7-3.2
			c0-1.1-0.1-2.2-0.4-3.1s-0.6-1.9-1.1-2.8c-0.5-0.9-1.1-1.8-1.9-2.8s-1.6-1.9-2.6-3c-0.7-0.8-1.4-1.6-2.1-2.4
			c-0.7-0.8-1.4-1.7-1.9-2.6c-0.6-0.9-1.1-1.9-1.4-3s-0.6-2.2-0.6-3.5c0-2.1,0.4-3.9,1.2-5.5c0.8-1.6,1.8-2.9,3-3.9s2.5-1.8,3.9-2.4
			c1.4-0.5,2.6-0.8,3.8-0.8c1.8,0,3.4,0.3,4.9,1c1.5,0.7,2.7,1.7,3.5,3c0.5,0.8,0.8,1.7,0.8,2.7c0,0.2-0.1,0.4-0.4,0.5
			c-0.2,0.1-0.3,0.1-0.5,0.1s-0.2-0.3-0.2-0.6c0-0.8-0.2-1.6-0.7-2.2c-0.5-0.7-1.1-1.3-1.8-1.8c-0.8-0.5-1.6-0.9-2.6-1.2
			c-1-0.3-2-0.4-3-0.4c-1.1,0-2.2,0.2-3.5,0.7c-1.3,0.5-2.4,1.2-3.5,2.2c-1.1,1-2,2.2-2.8,3.6c-0.8,1.4-1.1,3.1-1.1,5
			c0,1.2,0.2,2.2,0.5,3.2c0.4,1,0.8,1.9,1.4,2.8c0.6,0.9,1.2,1.7,1.9,2.5c0.7,0.8,1.4,1.6,2,2.3c1.6,1.8,3,3.5,4,5
			c1,1.5,1.7,3.1,2.1,4.8c0.3,1.5,0.3,2.9,0,4.4c-0.3,1.4-0.8,2.7-1.6,3.9c-0.8,1.1-1.8,2.1-3.1,2.8c-1.3,0.7-2.7,1.1-4.4,1.1
			c-2.7,0-4.7-0.7-6.1-2.1c-1.4-1.4-2.1-3.2-2.1-5.5c0-1.2,0.1-2.2,0.4-3s0.7-1.5,1.2-2.1c0.5-0.5,1-0.9,1.6-1.2
			c0.6-0.3,1.2-0.4,1.8-0.4C145.7,58.7,146.2,58.7,146.7,58.9z"/>
		<path id="u_2_" class="st0" d="M179.7,47.7c0.3,0,0.7-0.1,1,0c0.3,0,0.4,0.2,0.2,0.6c-0.1,0.3-0.4,0.8-0.7,1.4
			c-0.5,1.1-1.1,2.4-1.8,3.9c-0.7,1.6-1.4,3.2-2,4.9c-0.6,1.7-1.2,3.4-1.6,5.1c-0.5,1.7-0.7,3.2-0.7,4.4c0,1.2,0.2,2.1,0.6,2.6
			c0.4,0.6,1,0.8,1.7,0.8c1.1,0,2.1-0.3,3-0.9c0.9-0.6,1.8-1.4,2.7-2.4c0.8-0.9,1.6-2,2.2-3c0.6-1.1,1.2-2,1.6-2.9
			c0.3-0.2,0.6-0.1,0.7,0.4c0.1,0.5,0.1,1-0.2,1.4c-0.5,0.8-1,1.8-1.7,2.8c-0.7,1-1.4,2-2.3,2.8c-0.8,0.9-1.8,1.6-2.8,2.2
			s-2.1,0.9-3.2,0.9c-0.2,0-0.4,0-0.5,0s-0.3-0.1-0.5-0.1c-0.8-0.2-1.4-0.7-1.9-1.4c-0.4-0.8-0.7-1.8-0.7-3.2c0-0.3,0.1-0.8,0.1-1.5
			c0.1-0.7,0.2-1.3,0.4-2c-0.3,0.9-0.8,1.9-1.5,2.8s-1.4,1.9-2.3,2.7s-1.8,1.4-2.7,2c-0.9,0.5-1.9,0.8-2.8,0.8c-1.1,0-2-0.4-2.6-1.2
			c-0.6-0.8-0.9-2-0.9-3.6c0-1.3,0.2-2.9,0.7-4.6c0.5-1.7,1-3.5,1.7-5.2c0.6-1.8,1.3-3.5,2.1-5.1s1.3-2.9,1.8-4
			c0.1-0.3,0.2-0.6,0.4-0.8s0.2-0.4,0.3-0.6c0.3,0,0.7-0.1,1,0c0.3,0,0.4,0.2,0.2,0.6c-0.2,0.3-0.4,0.8-0.7,1.4
			c-0.5,1.1-1.1,2.4-1.8,3.9c-0.7,1.6-1.4,3.2-2,4.9c-0.6,1.7-1.2,3.4-1.6,5.1c-0.5,1.7-0.7,3.2-0.7,4.4c0,1.2,0.2,2.1,0.6,2.6
			c0.4,0.6,0.9,0.8,1.7,0.8c1.3,0,2.6-0.5,3.7-1.6c1.2-1,2.3-2.3,3.3-3.7c1-1.4,1.9-3,2.6-4.6c0.7-1.6,1.3-3,1.7-4.1
			c0.2-0.8,0.6-1.6,1-2.6c0.4-1,0.8-1.9,1.3-2.9c0.4-0.9,0.9-1.8,1.2-2.6C179.2,48.7,179.5,48.1,179.7,47.7z"/>
	</g>
	<g id="in_2_" class="st6">
		<path id="i_2_" class="st0" d="M201.4,48.5c0.2,0,0.4,0,0.6,0c0.2,0,0.3,0.2,0.1,0.6c-0.1,0.2-0.2,0.3-0.3,0.5
			c-0.1,0.2-0.2,0.4-0.3,0.6c-0.5,0.9-1.1,2.1-1.7,3.6c-0.7,1.4-1.3,3-1.9,4.6c-0.6,1.6-1.2,3.2-1.6,4.7c-0.5,1.6-0.7,3-0.7,4.2
			c0,2.1,0.6,3.2,2.1,3.2c0.4,0,0.8-0.1,1.4-0.2c0.6-0.2,1.2-0.5,2-1.1c0.8-0.5,1.6-1.3,2.5-2.4c0.9-1.1,1.8-2.5,2.9-4.3
			c0.1-0.3,0.2-0.4,0.3-0.6c0.1-0.1,0.2,0,0.3,0.3c0.1,0.1,0.1,0.3,0.2,0.6c0,0.3,0,0.6-0.2,0.9c-0.2,0.3-0.3,0.5-0.5,0.8
			c-0.2,0.2-0.3,0.5-0.5,0.8c-0.5,0.7-1,1.5-1.6,2.2c-0.6,0.8-1.2,1.4-2,2s-1.5,1.1-2.3,1.5c-0.8,0.4-1.6,0.6-2.5,0.5
			c-1,0-1.8-0.4-2.4-1.1c-0.6-0.7-0.9-1.8-0.8-3.3c0-1.2,0.3-2.6,0.7-4.3c0.5-1.7,1.1-3.3,1.7-5.1c0.7-1.7,1.4-3.3,2.1-4.9
			c0.7-1.5,1.3-2.8,1.8-3.8c0.1-0.2,0.2-0.4,0.3-0.5C201.2,48.5,201.3,48.5,201.4,48.5z M202.1,44.1c0.3-0.5,0.6-0.7,1.1-0.7
			c0.3,0,0.5,0.1,0.7,0.3s0.3,0.4,0.2,0.7c0,0.4-0.1,0.7-0.4,0.9c-0.2,0.2-0.5,0.3-0.8,0.3c-0.2,0-0.3,0-0.4-0.1
			c-0.4-0.1-0.6-0.4-0.6-0.9C202.1,44.4,202.1,44.3,202.1,44.1z"/>
		<path id="n_2_" class="st0" d="M226.5,62.4c0.1-0.1,0.2-0.1,0.3-0.1c0.1,0.1,0.2,0.2,0.3,0.3c0.1,0.2,0.1,0.4,0.1,0.6
			c0,0.2,0,0.4-0.2,0.6c-0.1,0.2-0.2,0.4-0.3,0.6c-0.1,0.2-0.3,0.4-0.4,0.7c-0.4,0.7-0.9,1.4-1.5,2.1s-1.2,1.4-1.8,2.1
			c-0.6,0.7-1.4,1.2-2.1,1.6s-1.5,0.6-2.2,0.6c-1.1,0-1.9-0.4-2.3-1.3c-0.4-0.8-0.7-1.8-0.6-3c0-1.2,0.2-2.5,0.6-3.9
			c0.4-1.4,0.9-2.9,1.4-4.3s1.1-2.8,1.7-4c0.6-1.2,1.1-2.3,1.4-3c0.1-0.2,0.2-0.5,0.2-0.7c0-0.1-0.1-0.2-0.2-0.2
			c-0.5,0-1.3,0.3-2.5,1c-1.2,0.7-2.5,1.6-3.9,2.8c-1.4,1.2-2.8,2.6-4.2,4.3s-2.5,3.5-3.4,5.4c-0.4,1.1-0.8,2.2-1.1,3.1
			c-0.4,1-0.6,1.8-0.9,2.5c-0.2,0.6-0.4,1-0.6,1.2s-0.5,0.1-0.9-0.2c0.3-0.7,0.6-1.7,1-2.8c0.4-1.1,0.8-2.3,1.3-3.5
			c0.4-1.3,0.9-2.6,1.4-3.9c0.4-1.3,0.9-2.7,1.3-3.9c0.3-1.1,0.6-2.2,0.8-3.2c0.2-1,0.4-1.9,0.5-2.8c0-0.3,0.1-0.5,0.1-0.8
			c0-0.2,0-0.5,0-0.7c0-0.2,0-0.4,0.1-0.7c0.1-0.3,0.3-0.4,0.8-0.4c0.2,0,0.2,0.1,0.3,0.4c0,0.3,0,0.5,0,0.7c0,0.7-0.1,1.5-0.3,2.4
			s-0.4,1.8-0.6,2.8s-0.5,1.9-0.8,2.8s-0.6,1.8-0.8,2.6c1-1.5,2.2-2.9,3.4-4.2c1.2-1.2,2.4-2.3,3.6-3.2c1.2-0.9,2.2-1.6,3.2-2.1
			s1.7-0.7,2.3-0.7c0.9,0,1.3,0.5,1.3,1.4c0,0.2-0.1,0.5-0.2,0.8s-0.4,1-0.9,1.9c-0.4,0.9-0.9,1.9-1.4,3c-0.5,1.1-0.9,2.3-1.4,3.5
			c-0.4,1.2-0.8,2.4-1.1,3.6c-0.3,1.2-0.4,2.2-0.4,3.2c0,0.9,0.1,1.7,0.4,2.2c0.3,0.5,0.7,0.8,1.2,0.8s1.1,0,1.6-0.3
			c0.7-0.3,1.4-0.8,2-1.5c0.6-0.7,1.3-1.4,1.8-2.2c0.6-0.8,1.1-1.5,1.5-2.2C225.9,63.4,226.3,62.8,226.5,62.4z"/>
	</g>
	<circle id="outside_1_" class="st8" cx="182.7" cy="51.6" r="50"/>
</g>
</svg>
